<svg xmlns="http://www.w3.org/2000/svg" version="1.1" xmlns:xlink="http://www.w3.org/1999/xlink" xmlns:svgjs="http://svgjs.com/svgjs" width="250" height="1200" preserveAspectRatio="none" viewBox="0 0 250 1200"><g mask="url(&quot;#SvgjsMask1080&quot;)" fill="none"><rect width="250" height="1200" x="0" y="0" fill="url(#SvgjsLinearGradient1081)"></rect><path d="M197.89418791750975 1172.903643906222L257.32750406920525 1158.0852538877723 242.50911405075564 1098.651937736077 183.07579789906015 1113.4703277545266z" fill="rgba(28, 83, 142, 0.4)" class="triangle-float3"></path><path d="M91.55469951660731 468.95938504071285L84.79937036139592 430.6480096172289 46.48799493791199 437.40333877244035 53.2433240931234 475.7147141959243z" fill="rgba(28, 83, 142, 0.4)" class="triangle-float2"></path><path d="M91.044,917.713C107.989,917.117,124.131,911.108,133.845,897.211C145.356,880.744,153.85,859.436,144.035,841.906C134.077,824.121,111.372,819.274,91.044,820.766C73.335,822.066,59.224,833.629,50.009,848.808C40.344,864.728,33.158,884.418,42.687,900.419C52.075,916.183,72.707,918.358,91.044,917.713" fill="rgba(28, 83, 142, 0.4)" class="triangle-float1"></path><path d="M225.72444007055782 205.6925560659925L231.9721445998836 154.8090859995375 181.08867453342862 148.56138147021173 174.84097000410281 199.44485153666673z" fill="rgba(28, 83, 142, 0.4)" class="triangle-float2"></path><path d="M99.47615784259179 643.4779416580872L56.299334057398994 586.1803612399301-0.998246360758074 629.3571850251229 42.17857742443472 686.65476544328z" fill="rgba(28, 83, 142, 0.4)" class="triangle-float1"></path><path d="M210.578,1137.031C229.196,1136.563,249.127,1132.928,258.683,1116.943C268.432,1100.635,264.059,1080.229,254.268,1063.946C244.812,1048.22,228.9,1037.95,210.578,1036.941C190.181,1035.817,168.634,1041.387,157.672,1058.625C146.007,1076.968,145.939,1101.451,158.098,1119.47C169.157,1135.859,190.813,1137.527,210.578,1137.031" fill="rgba(28, 83, 142, 0.4)" class="triangle-float1"></path><path d="M209.685,784.78C235.644,784.277,258.215,767.781,270.411,744.86C281.886,723.293,280.645,696.996,267.27,676.552C255.029,657.84,232.024,651.069,209.685,652.035C189.162,652.923,171.696,664.212,160.124,681.185C146.464,701.221,134.273,725.42,144.738,747.296C156.3,771.463,182.9,785.299,209.685,784.78" fill="rgba(28, 83, 142, 0.4)" class="triangle-float3"></path><path d="M61.532,683.812C86.423,683.782,106.196,665.624,118.835,644.181C131.717,622.326,138.751,595.803,126.502,573.587C113.906,550.74,87.575,538.707,61.532,540.249C37.817,541.654,20.148,559.777,8.652,580.567C-2.399,600.553,-6.425,623.995,3.986,644.322C15.353,666.514,36.598,683.843,61.532,683.812" fill="rgba(28, 83, 142, 0.4)" class="triangle-float2"></path><path d="M233.161,217.898C244.458,218.136,256.931,216.929,262.993,207.394C269.388,197.335,267.137,184.317,261.013,174.09C255.07,164.165,244.709,156.902,233.161,157.575C222.484,158.197,215.713,167.748,210.413,177.037C205.178,186.212,200.287,196.953,205.426,206.183C210.658,215.581,222.407,217.672,233.161,217.898" fill="rgba(28, 83, 142, 0.4)" class="triangle-float2"></path></g><defs><mask id="SvgjsMask1080"><rect width="250" height="1200" fill="#ffffff"></rect></mask><linearGradient x1="0%" y1="50%" x2="100%" y2="50%" gradientUnits="userSpaceOnUse" id="SvgjsLinearGradient1081"><stop stop-color="#0e2a47" offset="0"></stop><stop stop-color="rgba(15, 66, 131, 1)" offset="1"></stop></linearGradient><style>
            @keyframes float1 {
                0%{transform: translate(0, 0)}
                50%{transform: translate(-10px, 0)}
                100%{transform: translate(0, 0)}
            }

            .triangle-float1 {
                animation: float1 5s infinite;
            }

            @keyframes float2 {
                0%{transform: translate(0, 0)}
                50%{transform: translate(-5px, -5px)}
                100%{transform: translate(0, 0)}
            }

            .triangle-float2 {
                animation: float2 4s infinite;
            }

            @keyframes float3 {
                0%{transform: translate(0, 0)}
                50%{transform: translate(0, -10px)}
                100%{transform: translate(0, 0)}
            }

            .triangle-float3 {
                animation: float3 6s infinite;
            }
        </style></defs></svg>