<svg xmlns="http://www.w3.org/2000/svg" version="1.1" xmlns:xlink="http://www.w3.org/1999/xlink" xmlns:svgjs="http://svgjs.com/svgjs" width="1440" height="560" preserveAspectRatio="none" viewBox="0 0 1440 560"><g mask="url(&quot;#SvgjsMask1155&quot;)" fill="none"><rect width="1440" height="560" x="0" y="0" fill="url(#SvgjsLinearGradient1156)"></rect><path d="M1512 560L0 560 L0 330.41Q33.97 244.38, 120 278.36Q195.54 233.9, 240 309.44Q285.04 282.48, 312 327.51Q318.32 261.83, 384 268.15Q449.63 213.77, 504 279.4Q577.31 280.71, 576 354.02Q631.67 289.69, 696 345.36Q723.33 300.69, 768 328.01Q841.99 282, 888 355.98Q897.04 293.02, 960 302.07Q998.2 220.27, 1080 258.47Q1148.38 206.85, 1200 275.22Q1271.42 274.64, 1272 346.07Q1305.67 259.74, 1392 293.41Q1435.18 216.59, 1512 259.77z" fill="#182f5d"></path><path d="M1560 560L0 560 L0 337.95Q100.3 318.25, 120 418.56Q134 360.56, 192 374.56Q217.31 327.87, 264 353.17Q316.72 333.89, 336 386.62Q394.89 373.51, 408 432.41Q426.11 378.52, 480 396.63Q530.4 327.03, 600 377.43Q689.62 347.05, 720 436.66Q733.55 378.21, 792 391.76Q801.45 329.21, 864 338.66Q905.94 308.61, 936 350.55Q1009.1 351.65, 1008 424.75Q1041.25 338, 1128 371.25Q1202.13 325.38, 1248 399.5Q1282.76 314.26, 1368 349.03Q1420.58 329.61, 1440 382.19Q1494.42 316.62, 1560 371.04z" fill="#25467d"></path><path d="M1464 560L0 560 L0 443.04Q68.08 391.12, 120 459.2Q132.52 399.72, 192 412.24Q263.35 363.59, 312 434.93Q387.95 390.88, 432 466.84Q513.02 427.86, 552 508.88Q567.12 404, 672 419.12Q730.03 405.15, 744 463.19Q791.43 438.62, 816 486.05Q858.48 408.53, 936 451.01Q1005.92 400.93, 1056 470.85Q1103.46 446.31, 1128 493.77Q1145.35 439.12, 1200 456.46Q1245.18 429.64, 1272 474.82Q1309.9 392.73, 1392 430.63Q1437.2 403.83, 1464 449.03z" fill="#356cb1"></path><path d="M1464 560L0 560 L0 519.56Q75.2 474.76, 120 549.96Q153.05 463.01, 240 496.07Q312.17 448.24, 360 520.41Q413.37 501.77, 432 555.14Q456.55 507.69, 504 532.25Q562.4 518.65, 576 577.05Q594.53 475.58, 696 494.11Q737.73 463.84, 768 505.56Q827.58 493.14, 840 552.72Q915.88 508.61, 960 584.49Q979.06 483.55, 1080 502.61Q1124.03 474.64, 1152 518.67Q1195.04 441.71, 1272 484.75Q1354.49 447.25, 1392 529.74Q1415.97 481.71, 1464 505.68z" fill="white"></path></g><defs><mask id="SvgjsMask1155"><rect width="1440" height="560" fill="#ffffff"></rect></mask><linearGradient x1="15.28%" y1="-39.29%" x2="84.72%" y2="139.29%" gradientUnits="userSpaceOnUse" id="SvgjsLinearGradient1156"><stop stop-color="#0e2a47" offset="0"></stop><stop stop-color="rgba(25, 107, 211, 1)" offset="1"></stop></linearGradient></defs></svg>