<svg xmlns="http://www.w3.org/2000/svg" version="1.1" xmlns:xlink="http://www.w3.org/1999/xlink" xmlns:svgjs="http://svgjs.com/svgjs" width="1440" height="560" preserveAspectRatio="none" viewBox="0 0 1440 560"><g mask="url(&quot;#SvgjsMask1018&quot;)" fill="none"><rect width="1440" height="560" x="0" y="0" fill="rgba(21, 67, 96, 1)"></rect><path d="M0,570.349C104.764,554.276,148.85,427.472,235.421,366.321C316.571,308.999,446.355,313.017,490.39,223.954C534.34,135.063,464.982,33.297,448.416,-64.472C432.355,-159.258,456.116,-268.04,394.52,-341.853C332.762,-415.861,225.77,-429.176,130.717,-445.183C44.388,-459.721,-40.723,-448.801,-126.121,-429.53C-216.833,-409.059,-323.36,-403.082,-380.603,-329.795C-437.633,-256.782,-402.033,-151.402,-415.015,-59.67C-427.959,31.796,-479.463,119.059,-456.799,208.613C-432.401,305.015,-364.88,384.725,-286.922,446.459C-203.564,512.469,-105.099,586.473,0,570.349" fill="#11364e"></path><path d="M1440 943.898C1526.389 947.086 1618.302 997.02 1693.848 954.995 1769.595 912.858 1797.0720000000001 816.938 1818.982 733.075 1838.466 658.498 1824.819 582.488 1810.98 506.661 1797.636 433.549 1780.7440000000001 362.214 1739.9569999999999 300.086 1694.809 231.317 1646.45 147.168 1565.468 132.695 1484.214 118.173 1423.314 210.74400000000003 1342.843 229.113 1254.136 249.36200000000002 1136.638 176.75900000000001 1075.846 244.459 1015.437 311.733 1102.825 420.18 1090.804 509.793 1078.965 598.051 985.3199999999999 671.377 1006.991 757.749 1028.656 844.101 1116.123 901.534 1197.913 936.6949999999999 1273.614 969.239 1357.656 940.8589999999999 1440 943.898" fill="#195072"></path></g><defs><mask id="SvgjsMask1018"><rect width="1440" height="560" fill="#ffffff"></rect></mask></defs></svg>